<svg width="32" height="33" viewBox="0 0 32 33" fill="none" xmlns="http://www.w3.org/2000/svg">
<g clip-path="url(#clip0)">
<path fill-rule="evenodd" clip-rule="evenodd" d="M16.2069 0.251203L16.4126 0.254813L16.6184 0.26083L16.823 0.270457L17.0275 0.282491L17.2309 0.295728L17.4331 0.312575L17.6352 0.331828L17.8362 0.353489L18.0372 0.37876L18.2369 0.405233L18.4355 0.434114L18.634 0.465401L18.8314 0.499096L19.0275 0.5364L19.2237 0.574907L19.4174 0.615821L19.6124 0.659142L19.8049 0.70487L19.9974 0.754208L20.1876 0.803546L20.3789 0.856493L20.5678 0.911848L20.7556 0.969609L20.9433 1.02857L21.1298 1.09115L21.3151 1.15493L21.4992 1.22111L21.6821 1.2897L21.8651 1.3607L22.0456 1.4329L22.2261 1.50751L22.4042 1.58453L22.5823 1.66395L22.7591 1.74457L22.9348 1.82881L23.1081 1.91425L23.2814 2.00089L23.4535 2.08994L23.6244 2.18139L23.794 2.27525L23.9613 2.37032L24.1286 2.46779L24.2946 2.56767L24.4583 2.66875L24.6219 2.77224L24.7832 2.87693L24.9432 2.98403L25.1021 3.09234L25.2597 3.20305L25.4162 3.31616L25.5702 3.43048L25.7242 3.546L25.8758 3.66393L26.0263 3.78306L26.1755 3.9046L26.3223 4.02855L26.4691 4.1537L26.6135 4.28005L26.7555 4.40761L26.8975 4.53757L27.0371 4.66994L27.1755 4.80351L27.3115 4.93829L27.4462 5.07427L27.5798 5.21266L27.7122 5.35225L27.8421 5.49424L27.9697 5.63624L28.096 5.78064L28.2212 5.92745L28.3451 6.07426L28.4667 6.22348L28.5858 6.3739L28.7037 6.52552L28.8193 6.67955L28.9336 6.83358L29.0467 6.99002L29.1574 7.14766L29.2657 7.3065L29.3728 7.46655L29.4775 7.6278L29.581 7.79146L29.6821 7.95511L29.782 8.12118L29.8794 8.28844L29.9745 8.45571L30.0684 8.62539L30.1598 8.79626L30.2489 8.96834L30.3355 9.14163L30.4209 9.31491L30.5052 9.4906L30.5858 9.6675L30.6652 9.84559L30.7422 10.0237L30.8168 10.2042L30.889 10.3847L30.96 10.5676L31.0286 10.7505L31.0948 10.9346L31.1586 11.12L31.2212 11.3065L31.2801 11.4942L31.3379 11.6819L31.3933 11.8708L31.445 12.0622L31.4955 12.2523L31.5449 12.4448L31.5906 12.6374L31.6339 12.8323L31.6748 13.0261L31.7133 13.2222L31.7507 13.4184L31.7843 13.6157L31.8156 13.8143L31.8445 14.0128L31.871 14.2126L31.8963 14.4135L31.9179 14.6145L31.9372 14.8167L31.954 15.0188L31.9673 15.2222L31.9793 15.4268L31.9889 15.6313L31.9949 15.8371L31.9985 16.0429L31.9997 16.2499L31.9985 16.4556L31.9949 16.6626L31.9889 16.8672L31.9793 17.0718L31.9673 17.2763L31.954 17.4797L31.9372 17.6819L31.9179 17.884L31.8963 18.0862L31.871 18.286L31.8445 18.4857L31.8156 18.6843L31.7843 18.8828L31.7507 19.0802L31.7133 19.2763L31.6748 19.4725L31.6339 19.6674L31.5906 19.8612L31.5449 20.0537L31.4955 20.2462L31.445 20.4376L31.3933 20.6277L31.3379 20.8166L31.2801 21.0056L31.2212 21.1921L31.1586 21.3786L31.0948 21.5639L31.0286 21.748L30.96 21.9321L30.889 22.1138L30.8168 22.2944L30.7422 22.4749L30.6652 22.6542L30.5858 22.831L30.5052 23.0079L30.4209 23.1836L30.3355 23.3581L30.2489 23.5314L30.1598 23.7023L30.0684 23.8732L29.9745 24.0428L29.8794 24.2113L29.782 24.3774L29.6821 24.5434L29.581 24.7083L29.4775 24.8707L29.3728 25.032L29.2657 25.192L29.1574 25.3521L29.0467 25.5085L28.9336 25.665L28.8193 25.8202L28.7037 25.973L28.5858 26.1246L28.4667 26.2751L28.3451 26.4243L28.2212 26.5723L28.096 26.7179L27.9697 26.8623L27.8421 27.0055L27.7122 27.1463L27.5798 27.2859L27.4462 27.4243L27.3115 27.5615L27.1755 27.6962L27.0371 27.8298L26.8975 27.961L26.7555 28.0909L26.6135 28.2197L26.4691 28.346L26.3223 28.4712L26.1755 28.5939L26.0263 28.7155L25.8758 28.8346L25.7242 28.9525L25.5702 29.0693L25.4162 29.1836L25.2597 29.2955L25.1021 29.4062L24.9432 29.5157L24.7832 29.6228L24.6219 29.7275L24.4583 29.831L24.2946 29.9321L24.1286 30.0308L23.9613 30.1282L23.794 30.2233L23.6244 30.3172L23.4535 30.4086L23.2814 30.4977L23.1081 30.5855L22.9348 30.6709L22.7591 30.754L22.5823 30.8346L22.4042 30.914L22.2261 30.991L22.0456 31.0656L21.8651 31.139L21.6821 31.21L21.4992 31.2774L21.3151 31.3436L21.1298 31.4086L20.9433 31.47L20.7556 31.5301L20.5678 31.5867L20.3789 31.6421L20.1876 31.695L19.9974 31.7455L19.8049 31.7937L19.6124 31.8394L19.4174 31.8827L19.2237 31.9236L19.0275 31.9633L18.8314 31.9995L18.634 32.0331L18.4355 32.0644L18.2369 32.0945L18.0372 32.121L17.8362 32.1451L17.6352 32.1667L17.4331 32.186L17.2309 32.2028L17.0275 32.2173L16.823 32.2281L16.6184 32.2377L16.4126 32.2437L16.2069 32.2485L15.9999 32.2497L15.7941 32.2485L15.5871 32.2437L15.3826 32.2377L15.178 32.2281L14.9734 32.2173L14.77 32.2028L14.5679 32.186L14.3657 32.1667L14.1635 32.1451L13.9638 32.121L13.764 32.0945L13.5655 32.0644L13.3669 32.0331L13.1696 31.9995L12.9734 31.9633L12.7773 31.9236L12.5823 31.8827L12.3886 31.8394L12.1961 31.7937L12.0035 31.7455L11.8122 31.695L11.6221 31.6421L11.4331 31.5867L11.2442 31.5301L11.0577 31.47L10.8712 31.4086L10.6858 31.3436L10.5017 31.2774L10.3176 31.21L10.1359 31.139L9.9554 31.0656L9.77489 30.991L9.59559 30.914L9.4187 30.8346L9.2418 30.754L9.06611 30.6709L8.89163 30.5855L8.71834 30.4977L8.54747 30.4086L8.37659 30.3172L8.20691 30.2233L8.03844 30.1282L7.87238 30.0308L7.70632 29.9321L7.54146 29.831L7.379 29.7275L7.21775 29.6228L7.05771 29.5157L6.89766 29.4062L6.74122 29.2955L6.58479 29.1836L6.42955 29.0693L6.27673 28.9525L6.1251 28.8346L5.97468 28.7155L5.82547 28.5939L5.67745 28.4712L5.53185 28.346L5.38744 28.2197L5.24424 28.0909L5.10345 27.961L4.96386 27.8298L4.82547 27.6962L4.68829 27.5615L4.55351 27.4243L4.41994 27.2859L4.28877 27.1463L4.15881 27.0055L4.03005 26.8623L3.9037 26.7179L3.77855 26.5723L3.65581 26.4243L3.53427 26.2751L3.41514 26.1246L3.29721 25.973L3.18048 25.8202L3.06616 25.665L2.95425 25.5085L2.84354 25.3521L2.73403 25.192L2.62693 25.032L2.52224 24.8707L2.41875 24.7083L2.31767 24.5434L2.219 24.3774L2.12152 24.2113L2.02646 24.0428L1.9326 23.8732L1.84114 23.7023L1.75209 23.5314L1.66425 23.3581L1.57881 23.1836L1.49578 23.0079L1.41515 22.831L1.33573 22.6542L1.25871 22.4749L1.18411 22.2944L1.1107 22.1138L1.0397 21.9321L0.972315 21.748L0.90613 21.5639L0.841149 21.3786L0.779777 21.1921L0.719609 21.0056L0.663051 20.8166L0.607697 20.6277L0.554749 20.4376L0.504208 20.2462L0.456073 20.0537L0.410346 19.8612L0.367025 19.6674L0.326111 19.4725L0.2864 19.2763L0.250299 19.0802L0.216605 18.8828L0.185317 18.6843L0.155233 18.4857L0.12876 18.286L0.104692 18.0862L0.0830318 17.884L0.063778 17.6819L0.046931 17.4797L0.0324907 17.2763L0.0216605 17.0718L0.0120336 16.8672L0.00601679 16.6626L0.00120334 16.4556L0 16.2499L0.00120334 16.0429L0.00601679 15.8371L0.0120336 15.6313L0.0216605 15.4268L0.0324907 15.2222L0.046931 15.0188L0.063778 14.8167L0.0830318 14.6145L0.104692 14.4135L0.12876 14.2126L0.155233 14.0128L0.185317 13.8143L0.216605 13.6157L0.250299 13.4184L0.2864 13.2222L0.326111 13.0261L0.367025 12.8323L0.410346 12.6374L0.456073 12.4448L0.504208 12.2523L0.554749 12.0622L0.607697 11.8708L0.663051 11.6819L0.719609 11.4942L0.779777 11.3065L0.841149 11.12L0.90613 10.9346L0.972315 10.7505L1.0397 10.5676L1.1107 10.3847L1.18411 10.2042L1.25871 10.0237L1.33573 9.84559L1.41515 9.6675L1.49578 9.4906L1.57881 9.31491L1.66425 9.14163L1.75209 8.96834L1.84114 8.79626L1.9326 8.62539L2.02646 8.45571L2.12152 8.28844L2.219 8.12118L2.31767 7.95511L2.41875 7.79146L2.52224 7.6278L2.62693 7.46655L2.73403 7.3065L2.84354 7.14766L2.95425 6.99002L3.06616 6.83358L3.18048 6.67955L3.29721 6.52552L3.41514 6.3739L3.53427 6.22348L3.65581 6.07426L3.77855 5.92745L3.9037 5.78064L4.03005 5.63624L4.15881 5.49424L4.28877 5.35225L4.41994 5.21266L4.55351 5.07427L4.68829 4.93829L4.82547 4.80351L4.96386 4.66994L5.10345 4.53757L5.24424 4.40761L5.38744 4.28005L5.53185 4.1537L5.67745 4.02855L5.82547 3.9046L5.97468 3.78306L6.1251 3.66393L6.27673 3.546L6.42955 3.43048L6.58479 3.31616L6.74122 3.20305L6.89766 3.09234L7.05771 2.98403L7.21775 2.87693L7.379 2.77224L7.54146 2.66875L7.70632 2.56767L7.87238 2.46779L8.03844 2.37032L8.20691 2.27525L8.37659 2.18139L8.54747 2.08994L8.71834 2.00089L8.89163 1.91425L9.06611 1.82881L9.2418 1.74457L9.4187 1.66395L9.59559 1.58453L9.77489 1.50751L9.9554 1.4329L10.1359 1.3607L10.3176 1.2897L10.5017 1.22111L10.6858 1.15493L10.8712 1.09115L11.0577 1.02857L11.2442 0.969609L11.4331 0.911848L11.6221 0.856493L11.8122 0.803546L12.0035 0.754208L12.1961 0.70487L12.3886 0.659142L12.5823 0.615821L12.7773 0.574907L12.9734 0.5364L13.1696 0.499096L13.3669 0.465401L13.5655 0.434114L13.764 0.405233L13.9638 0.37876L14.1635 0.353489L14.3657 0.331828L14.5679 0.312575L14.77 0.295728L14.9734 0.282491L15.178 0.270457L15.3826 0.26083L15.5871 0.254813L15.7941 0.251203L15.9999 0.25L16.2069 0.251203ZM15.8061 1.2512L15.6124 1.25481L15.4199 1.26082L15.2285 1.26925L15.0372 1.28008L14.8459 1.29331L14.6557 1.30896L14.4668 1.32701L14.2779 1.34746L14.0901 1.37033L13.9024 1.3956L13.7159 1.42207L13.5306 1.45216L13.3453 1.48344L13.1611 1.51834L12.9782 1.55444L12.7953 1.59295L12.6136 1.63386L12.4331 1.67718L12.2526 1.72171L12.0733 1.76984L11.8952 1.81918L11.7183 1.87093L11.5414 1.92387L11.3657 1.98043L11.1912 2.03819L11.018 2.09836L10.8459 2.15973L10.6738 2.22471L10.5029 2.2909L10.3333 2.35829L10.1648 2.42808L9.99751 2.50028L9.83025 2.57489L9.66539 2.6507L9.50053 2.72892L9.33687 2.80955L9.17442 2.89138L9.01437 2.97441L8.85432 3.06105L8.69548 3.14769L8.53784 3.23794L8.3814 3.32819L8.22617 3.42206L8.07214 3.51712L7.91931 3.61339L7.76769 3.71207L7.61727 3.81195L7.46805 3.91423L7.32004 4.01772L7.17443 4.12362L7.02883 4.23071L6.88442 4.33902L6.74243 4.44973L6.60163 4.56284L6.46204 4.67596L6.32366 4.79148L6.18647 4.90941L6.0517 5.02734L5.91692 5.14768L5.78455 5.27042L5.65339 5.39316L5.52342 5.51831L5.39587 5.64466L5.26951 5.77342L5.14436 5.90339L5.02042 6.03335L4.89888 6.16692L4.77854 6.30049L4.65941 6.43647L4.54268 6.57245L4.42716 6.71084L4.31284 6.85043L4.20093 6.99122L4.09022 7.13442L3.98192 7.27762L3.87482 7.42323L3.76892 7.57004L3.66543 7.71685L3.56315 7.86607L3.46327 8.01649L3.36459 8.16811L3.26712 8.32094L3.17206 8.47497L3.0794 8.6302L2.98794 8.78664L2.89889 8.94428L2.81105 9.10312L2.72561 9.26317L2.64138 9.42442L2.55955 9.58687L2.48013 9.74932L2.40191 9.91418L2.32609 10.0802L2.25149 10.2463L2.17929 10.4136L2.10949 10.582L2.0409 10.7517L1.97471 10.9226L1.91094 11.0947L1.84836 11.2668L1.78819 11.4412L1.73043 11.6157L1.67508 11.7914L1.62093 11.9671L1.56918 12.1452L1.51984 12.3233L1.47291 12.5026L1.42718 12.6819L1.38507 12.8636L1.34415 13.0453L1.30565 13.227L1.26834 13.4111L1.23465 13.5953L1.20336 13.7794L1.17328 13.9659L1.1456 14.1524L1.12153 14.3389L1.09867 14.5267L1.07821 14.7156L1.06016 14.9045L1.04452 15.0946L1.03128 15.286L1.02045 15.4773L1.01082 15.6699L1.00481 15.8624L1.0012 16.0549L0.999992 16.2499L1.0012 16.4436L1.00481 16.6374L1.01082 16.8299L1.02045 17.0212L1.03128 17.2126L1.04452 17.4039L1.06016 17.594L1.07821 17.783L1.09867 17.9719L1.12153 18.1596L1.1456 18.3473L1.17328 18.5339L1.20336 18.7192L1.23465 18.9045L1.26834 19.0886L1.30565 19.2715L1.34415 19.4544L1.38507 19.6361L1.42718 19.8166L1.47291 19.9971L1.51984 20.1764L1.56918 20.3545L1.62093 20.5314L1.67508 20.7083L1.73043 20.884L1.78819 21.0585L1.84836 21.2318L1.91094 21.4039L1.97471 21.5759L2.0409 21.7468L2.10949 21.9165L2.17929 22.085L2.25149 22.2522L2.32609 22.4195L2.40191 22.5844L2.48013 22.7492L2.55955 22.9129L2.64138 23.0753L2.72561 23.2354L2.81105 23.3954L2.89889 23.5543L2.98794 23.7119L3.0794 23.8683L3.17206 24.0236L3.26712 24.1776L3.36459 24.3304L3.46327 24.4821L3.56315 24.6325L3.66543 24.7817L3.76892 24.9297L3.87482 25.0753L3.98192 25.2209L4.09022 25.3653L4.20093 25.5073L4.31284 25.6481L4.42716 25.7877L4.54268 25.9261L4.65941 26.0633L4.77854 26.1981L4.89888 26.3328L5.02042 26.4652L5.14436 26.5964L5.26951 26.7263L5.39587 26.8539L5.52342 26.9802L5.65339 27.1054L5.78455 27.2293L5.91692 27.3509L6.0517 27.4712L6.18647 27.5903L6.32366 27.7071L6.46204 27.8226L6.60163 27.9369L6.74243 28.0488L6.88442 28.1595L7.02883 28.2678L7.17443 28.3749L7.32004 28.4808L7.46805 28.5843L7.61727 28.6866L7.76769 28.7865L7.91931 28.8852L8.07214 28.9826L8.22617 29.0777L8.3814 29.1704L8.53784 29.2618L8.69548 29.3509L8.85432 29.4387L9.01437 29.5241L9.17442 29.6084L9.33687 29.6902L9.50053 29.7696L9.66539 29.8478L9.83025 29.9237L9.99751 29.9983L10.1648 30.0705L10.3333 30.1403L10.5029 30.2088L10.6738 30.275L10.8459 30.3388L11.018 30.4014L11.1912 30.4616L11.3657 30.5193L11.5414 30.5747L11.7183 30.6288L11.8952 30.6806L12.0733 30.7299L12.2526 30.7768L12.4331 30.8226L12.6136 30.8647L12.7953 30.9056L12.9782 30.9441L13.1611 30.9814L13.3453 31.0151L13.5306 31.0464L13.7159 31.0765L13.9024 31.1041L14.0901 31.1282L14.2779 31.1511L14.4668 31.1715L14.6557 31.1896L14.8459 31.2052L15.0372 31.2185L15.2285 31.2293L15.4199 31.2389L15.6124 31.2449L15.8061 31.2486L15.9999 31.2498L16.1948 31.2486L16.3874 31.2449L16.5799 31.2389L16.7724 31.2293L16.9638 31.2185L17.1551 31.2052L17.3452 31.1896L17.5342 31.1715L17.7231 31.1511L17.9108 31.1282L18.0973 31.1041L18.2839 31.0765L18.4704 31.0464L18.6545 31.0151L18.8386 30.9814L19.0227 30.9441L19.2044 30.9056L19.3861 30.8647L19.5678 30.8226L19.7471 30.7768L19.9264 30.7299L20.1045 30.6806L20.2826 30.6288L20.4583 30.5747L20.634 30.5193L20.8085 30.4616L20.983 30.4014L21.1551 30.3388L21.3271 30.275L21.498 30.2088L21.6677 30.1403L21.8362 30.0705L22.0034 29.9983L22.1695 29.9237L22.3356 29.8478L22.5004 29.7696L22.6629 29.6902L22.8253 29.6084L22.9866 29.5241L23.1466 29.4387L23.3055 29.3509L23.4631 29.2618L23.6195 29.1704L23.7748 29.0777L23.9288 28.9826L24.0816 28.8852L24.2333 28.7865L24.3837 28.6866L24.5329 28.5843L24.6797 28.4808L24.8265 28.3749L24.9721 28.2678L25.1153 28.1595L25.2585 28.0488L25.3993 27.9369L25.5389 27.8226L25.6773 27.7071L25.8133 27.5903L25.9493 27.4712L26.0828 27.3509L26.2164 27.2293L26.3464 27.1054L26.4763 26.9802L26.6051 26.8539L26.7314 26.7263L26.8566 26.5964L26.9793 26.4652L27.1021 26.3328L27.2224 26.1981L27.3403 26.0633L27.4583 25.9261L27.5738 25.7877L27.6869 25.6481L27.8 25.5073L27.9107 25.3653L28.019 25.2209L28.1261 25.0753L28.232 24.9297L28.3355 24.7817L28.4378 24.6325L28.5377 24.4821L28.6364 24.3304L28.7326 24.1776L28.8277 24.0236L28.9216 23.8683L29.0118 23.7119L29.1021 23.5543L29.1887 23.3954L29.2753 23.2354L29.3584 23.0753L29.4402 22.9129L29.5208 22.7492L29.599 22.5844L29.6749 22.4195L29.7495 22.2522L29.8217 22.085L29.8915 21.9165L29.9588 21.7468L30.025 21.5759L30.09 21.4039L30.1514 21.2318L30.2116 21.0585L30.2693 20.884L30.3259 20.7083L30.3788 20.5314L30.4306 20.3545L30.4799 20.1764L30.528 19.9971L30.5726 19.8166L30.6159 19.6361L30.6568 19.4544L30.6953 19.2715L30.7314 19.0886L30.7663 18.9045L30.7976 18.7192L30.8277 18.5339L30.8541 18.3473L30.8794 18.1596L30.9023 17.9719L30.9227 17.783L30.9408 17.594L30.9564 17.4039L30.9697 17.2126L30.9805 17.0212L30.9889 16.8299L30.9949 16.6374L30.9986 16.4436L30.9998 16.2499L30.9986 16.0549L30.9949 15.8624L30.9889 15.6699L30.9805 15.4773L30.9697 15.286L30.9564 15.0946L30.9408 14.9045L30.9227 14.7156L30.9023 14.5267L30.8794 14.3389L30.8541 14.1524L30.8277 13.9659L30.7976 13.7794L30.7663 13.5953L30.7314 13.4111L30.6953 13.227L30.6568 13.0453L30.6159 12.8636L30.5726 12.6819L30.528 12.5026L30.4799 12.3233L30.4306 12.1452L30.3788 11.9671L30.3259 11.7914L30.2693 11.6157L30.2116 11.4412L30.1514 11.2668L30.09 11.0947L30.025 10.9226L29.9588 10.7517L29.8915 10.582L29.8217 10.4136L29.7495 10.2463L29.6749 10.0802L29.599 9.91418L29.5208 9.74932L29.4402 9.58687L29.3584 9.42442L29.2753 9.26317L29.1887 9.10312L29.1021 8.94428L29.0118 8.78664L28.9216 8.6302L28.8277 8.47497L28.7326 8.32094L28.6364 8.16811L28.5377 8.01649L28.4378 7.86607L28.3355 7.71685L28.232 7.57004L28.1261 7.42323L28.019 7.27762L27.9107 7.13442L27.8 6.99122L27.6869 6.85043L27.5738 6.71084L27.4583 6.57245L27.3403 6.43647L27.2224 6.30049L27.1021 6.16692L26.9793 6.03335L26.8566 5.90339L26.7314 5.77342L26.6051 5.64466L26.4763 5.51831L26.3464 5.39316L26.2164 5.27042L26.0828 5.14768L25.9493 5.02734L25.8133 4.90941L25.6773 4.79148L25.5389 4.67596L25.3993 4.56284L25.2573 4.44973L25.1153 4.33902L24.9721 4.23071L24.8265 4.12362L24.6797 4.01772L24.5329 3.91423L24.3837 3.81195L24.2333 3.71207L24.0816 3.61339L23.9288 3.51712L23.7748 3.42206L23.6195 3.32819L23.4631 3.23794L23.3055 3.14769L23.1466 3.06105L22.9866 2.97441L22.8253 2.89138L22.6629 2.80955L22.5004 2.72892L22.3356 2.6507L22.1695 2.57489L22.0034 2.50028L21.8362 2.42808L21.6677 2.35829L21.498 2.2909L21.3271 2.22471L21.1551 2.15973L20.983 2.09836L20.8085 2.03819L20.634 1.98043L20.4583 1.92387L20.2826 1.87093L20.1045 1.81918L19.9264 1.76984L19.7471 1.72171L19.5678 1.67718L19.3861 1.63386L19.2044 1.59295L19.0227 1.55444L18.8386 1.51834L18.6545 1.48344L18.4704 1.45216L18.2839 1.42207L18.0973 1.3956L17.9108 1.37033L17.7231 1.34746L17.5342 1.32701L17.3452 1.30896L17.1551 1.29331L16.9638 1.28008L16.7724 1.26925L16.5799 1.26082L16.3874 1.25481L16.1948 1.2512L15.9999 1.24999L15.8061 1.2512Z" fill="#666D89"/>
<path d="M23 11.6704C22.4846 11.9115 21.9313 12.0742 21.3501 12.1475C21.9435 11.7726 22.3988 11.1788 22.6133 10.4715C22.0582 10.8185 21.4434 11.0708 20.7894 11.2066C20.2653 10.6177 19.5187 10.25 18.6927 10.25C17.1065 10.25 15.8204 11.6064 15.8204 13.2792C15.8204 13.5167 15.8457 13.7479 15.8949 13.9695C13.5078 13.8434 11.3908 12.6372 9.97452 10.8044C9.72724 11.252 9.58557 11.7723 9.58557 12.3275C9.58557 13.3784 10.0926 14.3054 10.8632 14.8489C10.3927 14.8331 9.94957 14.697 9.56228 14.4701C9.56198 14.4826 9.56198 14.4953 9.56198 14.5081C9.56198 15.9759 10.5523 17.2003 11.866 17.4784C11.6253 17.5478 11.3715 17.585 11.1093 17.585C10.9244 17.585 10.7447 17.5659 10.5691 17.5306C10.9346 18.734 11.9957 19.61 13.2522 19.6342C12.269 20.447 11.0309 20.9312 9.68509 20.9312C9.45333 20.9312 9.22476 20.9168 9 20.8885C10.271 21.7483 11.7804 22.25 13.403 22.25C18.6859 22.25 21.5752 17.6336 21.5752 13.6304C21.5752 13.4994 21.5725 13.3686 21.5668 13.2384C22.1281 12.8115 22.6149 12.278 23 11.6704Z" fill="#666D89"/>
</g>
<defs>
<clipPath id="clip0">
<rect width="32" height="32" fill="white" transform="translate(0 0.25)"/>
</clipPath>
</defs>
</svg>
